<?xml version="1.0" encoding="utf-8"?>
<!-- Generator: Adobe Illustrator 16.0.0, SVG Export Plug-In . SVG Version: 6.00 Build 0)  -->
<!DOCTYPE svg PUBLIC "-//W3C//DTD SVG 1.1//EN" "http://www.w3.org/Graphics/SVG/1.1/DTD/svg11.dtd">
<svg version="1.1" id="Layer_1" xmlns="http://www.w3.org/2000/svg" xmlns:xlink="http://www.w3.org/1999/xlink" x="0px" y="0px"
	 width="18px" height="18px" viewBox="0 0 18 18" enable-background="new 0 0 18 18" xml:space="preserve">
<path fill="none" d="M0,0h18v18H0V0z"/>
<path fill="#FF0000" d="M9,1.5C4.86,1.5,1.5,4.86,1.5,9c0,4.141,3.36,7.5,7.5,7.5c4.141,0,7.5-3.359,7.5-7.5
	C16.5,4.86,13.141,1.5,9,1.5z M9,3.75c1.245,0,2.25,1.005,2.25,2.25S10.245,8.25,9,8.25S6.75,7.245,6.75,6S7.755,3.75,9,3.75z
	 M9,14.4c-1.875,0-3.533-0.961-4.5-2.416c0.022-1.492,3-2.312,4.5-2.312c1.492,0,4.479,0.817,4.5,2.312
	C12.533,13.439,10.875,14.4,9,14.4z"/>
</svg>
