<?xml version="1.0" encoding="utf-8"?>
<!-- Generator: Adobe Illustrator 16.0.0, SVG Export Plug-In . SVG Version: 6.00 Build 0)  -->
<!DOCTYPE svg PUBLIC "-//W3C//DTD SVG 1.1//EN" "http://www.w3.org/Graphics/SVG/1.1/DTD/svg11.dtd">
<svg version="1.1" id="Layer_1" xmlns="http://www.w3.org/2000/svg" xmlns:xlink="http://www.w3.org/1999/xlink" x="0px" y="0px"
	 width="18px" height="18px" viewBox="0 0 18 18" enable-background="new 0 0 18 18" xml:space="preserve">
<path fill="none" d="M0,0h18v18H0V0z"/>
<path fill="#FF0000" d="M4.5,3.75H2.25C1.837,3.75,1.5,4.087,1.5,4.5v9c0,0.412,0.337,0.75,0.75,0.75H4.5
	c0.413,0,0.75-0.338,0.75-0.75v-9C5.25,4.087,4.913,3.75,4.5,3.75z M15,3.75h-2.25C12.338,3.75,12,4.087,12,4.5v9
	c0,0.412,0.338,0.75,0.75,0.75H15c0.412,0,0.75-0.338,0.75-0.75v-9C15.75,4.087,15.412,3.75,15,3.75z M9.75,3.75H7.5
	c-0.413,0-0.75,0.337-0.75,0.75v9c0,0.412,0.337,0.75,0.75,0.75h2.25c0.412,0,0.75-0.338,0.75-0.75v-9
	C10.5,4.087,10.162,3.75,9.75,3.75z"/>
</svg>
